G04*
G04 #@! TF.GenerationSoftware,Altium Limited,Altium Designer,20.0.13 (296)*
G04*
G04 Layer_Color=8421504*
%FSLAX44Y44*%
%MOMM*%
G71*
G01*
G75*
%ADD14R,0.9000X1.3000*%
%ADD15R,2.5000X2.6000*%
%ADD16R,0.7000X1.3000*%
%ADD17R,2.6000X2.5000*%
%ADD18R,0.5588X0.6858*%
%ADD19R,0.6000X2.2000*%
%ADD20R,3.5000X2.2000*%
%ADD21R,1.0000X0.5500*%
%ADD22R,0.5500X1.0000*%
%ADD23R,1.6000X3.0000*%
%ADD24R,1.3000X0.9000*%
%ADD25R,1.3500X0.4000*%
%ADD26R,1.4000X1.6000*%
%ADD27R,1.9000X1.9000*%
%ADD28R,2.7000X2.0000*%
%ADD29R,0.8000X0.8000*%
%ADD30R,0.8000X0.8000*%
%ADD31R,1.5000X0.5500*%
%ADD32R,0.5500X1.5000*%
%ADD33R,1.3000X0.7000*%
%ADD34R,0.9000X0.6000*%
D14*
X137125Y193690D02*
D03*
X156125D02*
D03*
X262690Y390664D02*
D03*
X281690D02*
D03*
X473251Y260389D02*
D03*
X454251D02*
D03*
X217466Y465260D02*
D03*
X236466D02*
D03*
X419859Y57397D02*
D03*
X400858D02*
D03*
X394741Y285915D02*
D03*
X375741D02*
D03*
X434160Y285506D02*
D03*
X415160D02*
D03*
X270693Y93755D02*
D03*
X289693D02*
D03*
X321646Y57973D02*
D03*
X340646D02*
D03*
X321697Y82197D02*
D03*
X340697D02*
D03*
X380675Y57685D02*
D03*
X361675D02*
D03*
X7216Y439260D02*
D03*
X26216D02*
D03*
X26716Y519260D02*
D03*
X7716D02*
D03*
X434627Y260867D02*
D03*
X415627D02*
D03*
X407997Y81725D02*
D03*
X426997D02*
D03*
X29803Y244013D02*
D03*
X10803D02*
D03*
X425703Y110562D02*
D03*
X444703D02*
D03*
X176443Y193690D02*
D03*
X195443D02*
D03*
X382668Y81725D02*
D03*
X363668D02*
D03*
X648466Y138260D02*
D03*
X667466D02*
D03*
X348430Y106657D02*
D03*
X367430D02*
D03*
X454366Y285506D02*
D03*
X473365D02*
D03*
X449900Y81253D02*
D03*
X468900D02*
D03*
D15*
X434579Y320204D02*
D03*
X385578D02*
D03*
D16*
X225863Y127013D02*
D03*
X206863D02*
D03*
X239716Y392760D02*
D03*
X220716D02*
D03*
X239716Y372010D02*
D03*
X220716D02*
D03*
X239716Y351510D02*
D03*
X220716D02*
D03*
X92857Y202080D02*
D03*
X73857D02*
D03*
X72716Y339510D02*
D03*
X91716D02*
D03*
X93195Y179793D02*
D03*
X74195D02*
D03*
X74240Y158181D02*
D03*
X93240D02*
D03*
X239716Y330760D02*
D03*
X220716D02*
D03*
X239716Y310510D02*
D03*
X220716D02*
D03*
X233966Y435510D02*
D03*
X252966D02*
D03*
X206139Y102638D02*
D03*
X225139D02*
D03*
X73216Y291260D02*
D03*
X54216D02*
D03*
X404841Y108735D02*
D03*
X385841D02*
D03*
X328835Y104352D02*
D03*
X309835D02*
D03*
X84716Y317510D02*
D03*
X65716D02*
D03*
X27716Y267260D02*
D03*
X8716D02*
D03*
X569245Y259088D02*
D03*
X588246D02*
D03*
X298412Y67633D02*
D03*
X279412D02*
D03*
X647966Y211510D02*
D03*
X666966D02*
D03*
X377102Y262637D02*
D03*
X396102D02*
D03*
D17*
X273134Y357182D02*
D03*
Y308182D02*
D03*
D18*
X6216Y291010D02*
D03*
X30600D02*
D03*
X591547Y279200D02*
D03*
X567163D02*
D03*
D19*
X133566Y103510D02*
D03*
X146266Y103510D02*
D03*
X158966Y103510D02*
D03*
X184366D02*
D03*
X171666Y103510D02*
D03*
D20*
X158966Y167010D02*
D03*
D21*
X166216Y438260D02*
D03*
X166216Y428760D02*
D03*
X166216Y419260D02*
D03*
X193216Y438260D02*
D03*
X193216Y419260D02*
D03*
X200716Y164510D02*
D03*
X200716Y155010D02*
D03*
X200716Y145510D02*
D03*
X227716Y164510D02*
D03*
Y145510D02*
D03*
D22*
X50466Y241510D02*
D03*
X59966Y241510D02*
D03*
X69466Y241510D02*
D03*
X50466Y268510D02*
D03*
X69466D02*
D03*
X655466Y163260D02*
D03*
X664966Y163260D02*
D03*
X674466Y163260D02*
D03*
X655466Y190260D02*
D03*
X674466Y190260D02*
D03*
D23*
X68216Y55760D02*
D03*
Y14760D02*
D03*
X68466Y129760D02*
D03*
Y88760D02*
D03*
D24*
X190111Y216218D02*
D03*
Y235219D02*
D03*
X215100Y228758D02*
D03*
Y247758D02*
D03*
X112716Y119760D02*
D03*
Y100760D02*
D03*
X216216Y290760D02*
D03*
Y271760D02*
D03*
X165460Y234881D02*
D03*
Y215881D02*
D03*
X140471Y215543D02*
D03*
Y234543D02*
D03*
X115145Y234543D02*
D03*
Y215543D02*
D03*
X211966Y435760D02*
D03*
Y416760D02*
D03*
X629340Y448037D02*
D03*
Y467037D02*
D03*
X88622Y260607D02*
D03*
Y241607D02*
D03*
X635216Y187260D02*
D03*
Y168260D02*
D03*
D25*
X37466Y202260D02*
D03*
Y195760D02*
D03*
Y189260D02*
D03*
Y182760D02*
D03*
Y176260D02*
D03*
D26*
X35216Y221260D02*
D03*
Y157260D02*
D03*
D27*
X10716Y201260D02*
D03*
Y177260D02*
D03*
D28*
X17466Y56510D02*
D03*
Y88510D02*
D03*
D29*
X196466Y391760D02*
D03*
X180466D02*
D03*
X196716Y370510D02*
D03*
X180716D02*
D03*
X252216Y415760D02*
D03*
X236216D02*
D03*
D30*
X608319Y430702D02*
D03*
Y414702D02*
D03*
D31*
X192966Y270760D02*
D03*
Y278760D02*
D03*
Y286760D02*
D03*
Y294760D02*
D03*
Y302760D02*
D03*
Y310760D02*
D03*
Y318760D02*
D03*
Y326760D02*
D03*
X108966D02*
D03*
Y318760D02*
D03*
Y310760D02*
D03*
Y302760D02*
D03*
Y294760D02*
D03*
Y286760D02*
D03*
Y278760D02*
D03*
Y270760D02*
D03*
D32*
X178966Y340760D02*
D03*
X170966D02*
D03*
X162966D02*
D03*
X154966D02*
D03*
X146966D02*
D03*
X138966D02*
D03*
X130966D02*
D03*
X122966D02*
D03*
Y256760D02*
D03*
X130966D02*
D03*
X138966D02*
D03*
X146966D02*
D03*
X154966D02*
D03*
X162966D02*
D03*
X170966D02*
D03*
X178966D02*
D03*
D33*
X116158Y172364D02*
D03*
Y191364D02*
D03*
X606530Y465363D02*
D03*
Y446363D02*
D03*
X628018Y411339D02*
D03*
Y430339D02*
D03*
X219158Y201680D02*
D03*
Y182680D02*
D03*
X668466Y233510D02*
D03*
Y252510D02*
D03*
X644466Y233260D02*
D03*
Y252260D02*
D03*
X238466Y291010D02*
D03*
Y272010D02*
D03*
D34*
X56387Y211873D02*
D03*
Y196873D02*
D03*
X57449Y177310D02*
D03*
Y162310D02*
D03*
M02*
